# xmcd CD database file
#
# Track frame offsets:
#	150
#	14345
#	29337
#	43812
#	57775
#	73442
#	86602
#	100952
#	113812
#	127055
#	141265
#	155465
#	169137
#	182910
#	196785
#	208745
#	222962
#	235490
#	249360
#	262472
#	274990
#	287680
#	299377
#	313342
#	325955
#
# Disc length: 4534 seconds
#
# Revision: 1
# Processed by: cddbd v1.5.1PL0 Copyright (c) Steve Scherf et al.
# Submitted via: CDex 1.51
#
DISCID=9811b419
DTITLE=Billie Holiday - The Essencial Lady Day [Disk 1]
DYEAR=1900
DGENRE=Jazz
TTITLE0=I Wished on the Moon
TTITLE1=These Foolish Things
TTITLE2=Easy to Love
TTITLE3=The Way You Look Tonight
TTITLE4=I Cant Give You Anything but Love
TTITLE5=I´ve Got My Love to Keep Me Warm
TTITLE6=This Year´s Kisses
TTITLE7=Why Was I Born?
TTITLE8=I Must Have That Man
TTITLE9=I´ll get By
TTITLE10=Mean to Me
TTITLE11=Foolin´ Myself
TTITLE12=Easy Livin´
TTITLE13=I´ll Never Be the Same
TTITLE14=He´s Funny That Way
TTITLE15=Nice Work If You Can Get It
TTITLE16=I Can´t Believe That You´Re In Love With Me
TTITLE17=If Dreams Come True
TTITLE18=You Got To My Head
TTITLE19=The Very Thought of You
TTITLE20=I Can´t Get Started
TTITLE21=Say It With a Kiss
TTITLE22=More Than You Know
TTITLE23=Sugar
TTITLE24=Strange Fruit
EXTD=
EXTT0=
EXTT1=
EXTT2=
EXTT3=
EXTT4=
EXTT5=
EXTT6=
EXTT7=
EXTT8=
EXTT9=
EXTT10=
EXTT11=
EXTT12=
EXTT13=
EXTT14=
EXTT15=
EXTT16=
EXTT17=
EXTT18=
EXTT19=
EXTT20=
EXTT21=
EXTT22=
EXTT23=
EXTT24=
PLAYORDER=
